<?xml version="1.0" standalone="no"?>
<!DOCTYPE svg PUBLIC "-//W3C//DTD SVG 1.1//EN" "http://www.w3.org/Graphics/SVG/1.1/DTD/svg11.dtd" >
<svg xmlns="http://www.w3.org/2000/svg">
<metadata>Generated by IcoMoon</metadata>
<defs>
<font id="icomoon" horiz-adv-x="512">
<font-face units-per-em="512" ascent="480" descent="-32" />
<missing-glyph horiz-adv-x="512" />
<glyph unicode="&#x20;" d="" horiz-adv-x="256" />
<glyph unicode="&#xe600;" d="M273.98 207.733h-154.113l-27.398-63.358c-6.85-15.411-10.274-27.398-10.274-34.248s3.424-11.986 8.562-15.411c5.137-5.137 18.836-6.849 37.672-8.562v-10.274h-123.291v10.274c17.123 3.425 27.398 6.849 32.535 11.986 10.274 8.562 20.549 29.111 32.535 56.509l138.702 325.351h10.274l138.702-330.488c10.274-25.685 20.548-44.522 30.822-51.371 8.562-8.562 22.261-11.986 37.672-13.699v-10.274h-155.826v10.274c15.411 0 25.685 3.425 32.535 8.562 5.137 5.137 8.562 10.274 8.562 17.123 0 8.562-3.425 22.261-11.986 41.097l-25.685 56.508zM265.418 228.281l-66.782 160.963-68.495-160.963h135.278zM0-32v29.111h426.382v-29.111h-426.382z" horiz-adv-x="427" />
<glyph unicode="&#xe601;" d="M88.452 104.079c39.123 56.133 76.545 110.565 115.668 164.997 13.608 20.412 27.216 40.824 42.525 59.535 23.814 32.319 62.937 39.123 91.854 17.010 28.917-20.412 35.721-59.535 13.608-90.153-56.133-81.648-113.967-164.996-171.8-244.943-32.319-44.226-91.854-54.432-136.079-23.814-44.226 30.618-57.834 88.452-27.216 134.378 71.442 103.761 142.883 207.522 216.026 309.582 39.123 54.432 117.369 64.638 171.8 28.917 56.133-37.422 76.545-112.266 40.824-170.1-44.226-71.442-93.555-137.78-142.884-209.222-10.206 6.804-18.711 13.608-30.618 20.412 34.020 47.628 66.339 95.256 98.658 141.183 13.608 18.711 27.216 37.422 40.824 57.834 27.216 42.525 17.010 96.957-23.814 125.874-39.123 28.917-96.957 23.814-125.874-18.711-73.143-102.060-144.584-204.12-216.026-307.88-20.412-28.917-10.206-64.638 17.010-83.349 27.216-18.711 62.937-15.309 83.349 11.907 59.535 81.648 117.369 166.697 175.202 250.047 10.206 15.309 6.804 30.618-8.505 39.123-15.309 10.206-28.917 3.402-39.123-11.907-45.927-62.937-91.854-129.276-137.78-193.913-6.804-8.505-11.907-17.010-20.412-27.216-8.505 6.804-17.010 13.608-27.216 20.412z" horiz-adv-x="465" />
<glyph unicode="&#xe602;" d="M504.024 244.468c5.327-5.327 8.005-12.136 8.005-20.454 0-8.29-2.678-15.098-8.005-20.454s-12.135-8.005-20.454-8.005h-199.097v-199.097c0-8.29-2.678-15.098-8.005-20.454-5.327-5.327-12.135-8.005-20.454-8.005s-15.098 2.678-20.454 8.005-8.005 12.135-8.005 20.454v199.097h-199.097c-8.29 0-15.098 2.678-20.454 8.005s-8.005 12.135-8.005 20.454c0 8.29 2.678 15.098 8.005 20.454s12.136 8.005 20.454 8.005h199.097v199.068c0 8.29 2.678 15.098 8.005 20.454 5.327 5.327 12.136 8.005 20.454 8.005s15.098-2.678 20.454-8.005c5.327-5.327 8.005-12.135 8.005-20.454v-199.097h199.097c8.318 0 15.127-2.649 20.454-7.976z" />
<glyph unicode="&#xe603;" d="M512 245.894c0-6.737-1.684-11.79-6.737-15.158s-8.421-6.737-15.158-6.737c-6.737 0-11.789 1.684-15.158 6.737s-6.737 8.421-6.737 15.158v160l-394.106-395.789h161.684c6.737 0 11.79-1.684 15.158-6.737s6.737-8.421 6.737-15.158c0-6.737-1.684-11.789-6.737-15.158s-8.421-6.737-15.158-6.737h-213.894c-3.369 0-5.053 0-8.421 1.684-5.053 3.368-10.105 6.737-11.79 11.789-1.684 3.368-1.684 6.737-1.684 10.106v213.894c0 6.737 1.684 11.789 6.737 15.158 3.369 3.368 8.421 6.737 15.158 6.737s11.79-1.684 15.158-6.737c3.368-3.368 6.737-8.421 6.737-15.158v-161.684l395.789 395.789h-161.684c-6.737 0-11.789 1.684-15.158 6.737-3.368 3.368-6.737 8.421-6.737 15.158s1.684 11.79 6.737 15.158c3.368 3.368 8.421 5.053 15.158 5.053h213.894c3.368 0 5.053 0 8.421-1.684s5.053-3.368 6.737-5.052c3.368-1.684 5.053-3.369 5.053-6.737s1.684-5.053 1.684-8.421v-212.21z" />
<glyph unicode="&#xe604;" d="M200.272 466.068c15.673-8.707 29.606-19.156 41.796-29.606s22.639-22.639 33.089-38.313c10.449-13.932 17.415-24.381 20.898-29.606 3.483-5.225 5.224-10.449 6.966-13.932l6.966 12.191c5.224 8.707 12.19 19.156 22.639 31.347 10.449 12.19 20.898 24.381 33.089 36.572s26.123 22.639 41.796 31.347 33.089 13.932 47.021 13.932c41.796 0 76.626-13.932 106.231-43.538 27.864-29.606 43.538-66.177 43.538-107.973 0-17.415-1.741-34.83-6.966-52.245-5.225-17.415-10.449-33.089-19.157-47.021-6.966-13.932-17.415-29.606-31.347-45.279-13.932-15.673-26.122-31.347-38.313-43.538-12.19-12.19-27.864-26.123-47.020-43.538s-34.83-31.347-50.504-41.796c-13.932-12.19-33.089-26.123-53.986-43.538s-40.055-33.089-55.728-43.538c-15.673 13.932-38.313 33.089-64.435 53.986s-50.504 40.055-69.66 55.728-40.054 36.572-62.694 57.469c-22.639 20.898-41.796 41.796-55.728 60.952s-26.122 40.054-34.83 62.694-13.932 47.021-13.932 69.66c0 41.796 15.674 78.367 45.279 107.973s64.436 43.538 106.231 43.538c15.673 0 31.347-5.225 48.762-13.932z" horiz-adv-x="605" />
<glyph unicode="&#xe605;" d="M548.964 344.197c-4.313 4.313-6.468 9.702-6.468 16.171s2.156 11.858 6.468 16.17 9.702 6.468 16.17 6.468h409.646c6.468 0 11.858-2.156 16.17-6.468s6.467-9.702 6.467-16.17-2.156-11.858-6.467-16.171c-4.313-4.313-9.702-6.468-16.17-6.468h-409.646c-6.467 0-11.858 2.156-16.17 6.468zM548.964 207.291c-4.313 4.313-6.468 9.702-6.468 16.17s2.156 11.858 6.468 16.171 9.702 6.468 16.17 6.468h409.646c6.468 0 11.858-2.156 16.17-6.468 4.313-4.313 6.467-9.702 6.467-16.171s-2.156-11.858-6.467-16.17c-4.313-4.313-9.702-6.468-16.17-6.468h-409.646c-6.467 0-11.858 2.156-16.17 6.468zM548.964 71.462c-4.313 4.313-6.468 9.702-6.468 16.17s2.156 11.858 6.468 16.17 9.702 6.468 16.17 6.468h409.646c6.468 0 11.858-2.156 16.17-6.468s6.467-9.702 6.467-16.17c0-6.467-2.156-11.858-6.467-16.17-4.313-4.313-9.702-6.468-16.17-6.468h-409.646c-6.467 0-11.858 2.156-16.17 6.468zM238.495 287.064c3.234 4.313 7.545 5.39 11.858 5.39h214.525c4.313 0 8.625-1.077 11.858-4.313v-1.077c7.546-7.545 7.546-16.17 0-23.717l-107.801-118.582v-1.077c-3.235-3.235-6.468-4.313-10.78-4.313-4.313 0-7.546 1.077-10.78 4.313l-107.802 119.66c-8.625 7.545-8.625 15.091-1.077 23.716z" horiz-adv-x="1231" />
<glyph unicode="&#xe606;" d="M0 97.276c0 3.402 1.701 6.804 3.402 8.505s5.103 3.402 8.505 3.402h25.515v45.927h-22.113c-3.402 0-6.804 1.701-10.206 5.103-3.402 1.701-5.103 5.103-5.103 8.505v22.113c0 3.402 1.701 6.804 5.103 10.206s6.804 5.103 10.206 5.103h23.814v39.123h-23.814c-3.402 0-6.804 1.701-10.206 5.103-3.402 1.701-5.103 5.103-5.103 8.505v22.113c0 3.402 1.701 6.804 5.103 10.206s6.804 5.103 10.206 5.103h23.814v42.525h-27.216c-3.402 0-6.804 1.701-8.505 3.402-1.701 3.402-3.402 5.103-3.402 8.505v27.216c0 3.402 1.701 6.804 3.402 8.505s5.103 3.402 8.505 3.402h25.515v64.638c0 6.804 1.701 13.608 6.804 18.711s11.907 6.804 20.412 6.804h435.455c6.804 0 13.608-1.701 18.711-6.804s6.804-10.206 6.804-18.711v-460.97c0-6.804-1.701-13.608-6.804-18.711s-10.206-6.804-18.711-6.804h-435.455c-6.804 0-13.608 1.701-18.711 6.804s-6.804 11.907-6.804 18.711v64.638h-27.216c-3.402 0-6.804 1.701-8.505 3.402-1.701 1.701-3.402 5.103-3.402 8.505v27.216zM93.555 22.432c1.701-1.701 5.103-3.402 8.505-3.402h360.611c3.402 0 6.804 1.701 8.505 3.402s3.402 5.103 3.402 8.505v386.126c0 3.402-1.701 6.804-3.402 8.505-3.402 1.701-6.804 3.402-10.206 3.402h-358.911c-3.402 0-6.804-1.701-8.505-3.402-3.402-3.402-3.402-5.103-3.402-8.505v-25.515h25.515c3.402 0 6.804-1.701 8.505-3.402 3.402-3.402 3.402-6.804 3.402-10.206v-27.216c0-3.402-1.701-6.804-3.402-8.505-1.701-1.701-5.103-3.402-8.505-3.402h-25.515v-44.226h23.814c3.402 0 6.804-1.701 10.206-5.103s5.103-6.804 5.103-10.206v-20.412c0-3.402-1.701-6.804-5.103-10.206s-6.804-5.103-10.206-5.103h-23.814v-39.123h23.814c3.402 0 6.804-1.701 10.206-5.103s5.103-6.804 5.103-10.206v-22.113c0-3.402-1.701-6.804-5.103-10.206-3.402-3.402-6.804-5.103-10.206-5.103h-23.814v-45.927h25.515c3.402 0 6.804-1.701 8.505-3.402 1.701-1.701 3.402-5.103 3.402-8.505v-27.216c0-3.402-1.701-6.804-3.402-8.505-1.701-1.701-5.103-3.402-8.505-3.402h-25.515v-25.515c0-1.701 0-5.103 3.402-6.804zM408.239 236.757c0-13.608-1.701-25.515-6.804-37.422s-10.206-20.412-18.711-27.216c-8.505-6.804-17.010-10.206-27.216-10.206-8.505 0-15.309 1.701-20.412 6.804-5.103 5.103-8.505 11.907-10.206 18.711h-1.701c-3.402-8.505-10.206-15.309-17.010-20.412-6.804-5.103-15.309-6.804-25.515-6.804-15.309 0-25.515 5.103-34.020 15.309-8.505 10.206-11.907 23.814-11.907 40.824 0 20.412 5.103 35.721 17.010 47.628 11.907 11.907 27.216 18.711 44.226 18.711 6.804 0 13.608 0 22.113-1.701s15.309-3.402 22.113-5.103l-3.402-68.040v-3.402c0-17.010 6.804-25.515 18.711-25.515 8.505 0 15.309 5.103 22.113 15.309 5.103 10.206 8.505 23.814 8.505 40.824 0 17.010-3.402 32.319-10.206 45.927-6.804 13.608-17.010 23.814-30.618 30.618-13.608 6.804-28.917 10.206-45.927 10.206-22.113 0-40.824-5.103-56.133-13.608-15.309-8.505-28.917-22.113-37.422-39.123-8.505-17.010-11.907-35.721-11.907-57.834 0-28.917 8.505-52.731 23.814-68.040 15.309-15.309 37.422-23.814 68.040-23.814 20.412 0 40.824 3.402 62.937 11.907v-18.711c-18.711-8.505-39.123-11.907-62.937-11.907-35.721 0-62.937 10.206-81.648 28.917-18.711 18.711-28.917 45.927-28.917 81.648 0 25.515 5.103 47.628 15.309 68.040 10.206 20.412 25.515 35.721 44.226 45.927s40.824 17.010 66.339 17.010c20.412 0 39.123-5.103 56.133-13.608s28.917-20.412 37.422-37.422c8.505-15.309 13.608-34.020 13.608-54.432zM258.551 216.346c0-23.814 10.206-37.422 28.917-37.422 20.412 0 30.618 15.309 32.319 45.927l1.701 37.422c-6.804 1.701-15.309 3.402-22.113 3.402-11.907 0-22.113-5.103-28.917-13.608-8.505-6.804-11.907-20.412-11.907-35.721z" horiz-adv-x="526" />
<glyph unicode="&#xe607;" d="M336.161 288.647l203.421-5.171-162.047-122.398 58.613-194.802-167.219 117.226-165.495-115.501 58.613 194.802-162.047 122.397 203.421 3.448 65.508 191.353 67.233-191.353z" horiz-adv-x="540" />
<glyph unicode="&#xe608;" d="M651.020-32c-194.967 0-391.629 0-586.596 0-33.907 8.477-55.947 30.517-64.424 64.424 0 127.153 0 254.304 0 381.457 0 0 1.696 0 1.696 1.695 6.782 35.603 28.821 55.947 62.728 64.424 194.967 0 391.629 0 586.596 0 32.212-6.781 54.251-27.126 64.424-59.338 0-128.847 0-257.695 0-388.238-1.696-6.781-3.39-11.868-6.782-18.649-10.172-25.43-32.212-37.298-57.643-45.775zM642.543 437.616c-191.576 0-378.066 0-566.251 0 1.695-1.695 3.391-3.39 3.391-5.086 89.855-86.463 178.013-174.622 266.172-262.781 11.868-11.868 16.954-11.868 28.821 1.695 61.033 61.033 122.066 122.066 183.1 183.099 27.126 27.126 55.947 54.252 84.768 83.073zM115.285 8.688c161.060 0 322.119 0 481.484 0-54.251 55.947-110.198 110.198-166.145 166.145-18.649-18.649-37.298-37.298-55.947-55.947-15.259-15.259-18.649-15.259-32.212 0-20.344 20.344-38.993 38.993-57.642 57.642-55.947-55.947-111.894-111.894-169.536-167.841zM461.139 200.265c61.033-59.337 122.066-120.371 183.1-181.404 10.172-10.172 18.649-10.172 25.431 1.695 5.086 10.172 8.477 22.039 8.477 33.907 0 118.675 0 235.655 0 354.331 0 3.39 0 5.086 0 8.477-72.9-72.9-144.106-144.106-217.006-217.006zM42.384 417.272c0-5.086 0-8.477 0-10.172 0-120.371 0-242.437 0-362.808 0-3.39 0-6.781 0-10.172 1.696-10.172 6.782-18.649 15.258-22.039 66.119 64.424 132.238 128.847 196.663 193.272-69.51 69.51-139.020 139.020-211.921 211.921z" horiz-adv-x="716" />
<glyph unicode="&#xe609;" d="M498.255 467.973c17.181-17.181 17.181-32.644-1.718-49.826l-194.147-195.866 173.53-192.43c15.463-15.463 15.463-32.644 0-49.825s-32.644-17.181-49.825 1.718l-173.53 192.429-192.429-194.148c-15.463-17.181-32.645-17.181-48.108-1.718-15.463 17.181-15.463 32.644 0 49.825l194.148 197.584-171.812 192.43c-17.181 17.181-17.181 32.644 0 49.825s32.644 17.181 49.826-1.718l173.53-192.429 192.43 192.429c15.463 17.181 32.644 18.899 48.108 1.718z" />
<glyph unicode="&#xe60a;" d="M0 405.591c0 3.543 0 5.315 1.772 8.858s3.543 5.315 5.315 8.858c1.771 0 3.543 1.772 7.087 3.543 3.544 1.772 5.315 1.772 8.858 1.772 5.315 0 10.63-1.772 14.173-5.315 5.315-3.543 7.087-7.087 8.858-12.401l109.841-412.789c0-1.772 0-3.543 0-5.315 0-7.087-1.772-12.401-7.087-15.945-3.543-5.315-10.63-7.087-17.716-7.087-5.315 0-10.63 1.772-14.173 5.315-5.315 3.543-7.087 7.087-8.858 12.401l-108.069 411.017c0 3.543 0 5.315 0 7.087zM97.439 400.277c7.087-3.543 14.173-5.315 23.031-5.315 12.401 0 30.118 5.315 53.149 12.401 21.26 10.63 42.519 19.488 62.007 30.118 8.858 5.315 19.488 10.63 30.117 15.945 10.63 5.315 21.26 8.858 31.889 14.173 21.26 7.087 40.748 12.401 53.149 12.401 8.858 0 15.945-1.772 21.26-5.315-3.543-17.716-7.087-33.661-10.63-49.606-3.543-15.945-8.858-28.346-12.401-42.519 5.315-7.087 10.63-15.945 17.716-23.031 5.315-8.858 12.401-15.944 17.716-23.031s10.63-14.173 15.945-19.488c5.315-5.315 8.858-10.63 12.401-14.173l8.858-10.63c-5.315 3.543-14.173 5.315-21.26 5.315-14.173 0-30.118-3.543-53.149-12.402-10.63-5.315-23.031-8.858-31.889-14.173-10.63-5.315-21.26-8.858-30.118-15.944-19.488-10.63-40.748-19.488-62.007-28.346-21.26-8.858-40.748-12.402-53.149-12.402-8.858 0-15.945 1.772-23.031 5.315l-49.606 180.706z" horiz-adv-x="422" />
<glyph unicode="&#xe60b;" d="M158.067-32c-12.027 24.053-22.335 46.389-34.362 67.007-34.362 72.161-70.443 144.322-106.523 216.483-25.772 54.98-22.335 108.241 10.309 158.067 32.645 49.825 80.751 73.879 140.886 70.443 87.624-5.154 152.913-79.034 147.758-166.657-1.718-20.618-6.873-41.235-15.463-60.134-46.389-94.497-92.779-187.275-139.168-281.772-1.718 0-1.718-1.718-3.436-3.436zM158.067 275.543c36.081 0 67.007 29.208 67.007 65.288s-29.208 67.007-65.288 67.007c-37.798 0-67.007-29.208-68.725-65.288 0-36.080 30.926-67.007 67.006-67.007z" horiz-adv-x="316" />
<glyph unicode="&#xe60c;" d="M437.37 405.37c-50.332 50.332-111.078 74.63-182.238 74.63s-130.169-24.298-180.501-74.63-74.63-111.078-74.63-180.502 24.299-130.17 74.63-180.502 111.078-74.63 180.501-74.63 130.17 24.298 180.502 74.63 74.63 111.078 74.63 180.501-24.298 130.169-72.895 180.501zM414.807 65.193c-43.39-43.39-97.193-65.952-157.939-65.952s-114.549 22.563-157.939 65.952-65.953 97.193-65.953 157.939 22.563 114.549 65.953 157.939 97.193 65.953 157.939 65.953 114.549-22.563 157.939-65.953 65.952-97.193 65.952-157.939-22.563-112.813-65.952-157.939zM312.407 96.434l-5.207-19.091c-13.885-5.207-24.298-10.413-32.976-12.149-8.678-3.471-17.356-5.207-29.505-5.207-17.356 0-29.505 3.471-39.918 12.149-8.678 8.678-13.885 19.091-13.885 31.24 0 5.207 0 10.413 1.736 15.62 0 5.207 1.736 10.413 3.471 17.356l17.356 62.481c1.736 5.207 3.471 12.149 3.471 17.356 1.736 5.207 1.736 10.413 1.736 13.885 0 8.678-1.736 13.885-5.207 17.356-3.471 3.471-8.678 5.207-19.091 5.207-5.207 0-8.678 0-13.885-1.736-5.207-1.736-8.678-3.471-12.149-3.471l5.207 19.091c12.149 5.207 22.563 8.678 32.976 12.149 10.413 3.471 20.827 5.207 29.505 5.207 17.356 0 29.505-3.471 38.183-12.149 8.678-8.678 13.885-19.091 13.885-31.24 0-3.471 0-6.942-1.736-13.885 0-6.942-1.736-12.149-3.471-19.091l-17.356-60.746c-1.736-5.207-3.471-10.413-3.471-17.356-1.736-6.942-1.736-10.413-1.736-13.885 0-8.678 1.736-13.885 5.207-17.356 3.471-3.471 10.413-5.207 19.091-5.207 3.471 0 8.678 0 13.885 1.736 6.942-1.736 10.413 0 13.885 1.736zM315.878 355.038c0-10.413-3.471-19.091-12.149-27.769s-17.356-12.149-29.505-12.149-20.827 3.471-29.505 12.149c-8.678 6.942-12.149 17.356-12.149 27.769 0 10.413 3.471 19.091 12.149 27.769 8.678 6.942 17.356 12.149 29.505 12.149s20.827-3.471 29.505-12.149 12.149-17.356 12.149-27.769z" />
<glyph unicode="&#xe60d;" d="M125.004 480c3.424 0 6.85-1.712 8.562-3.425 3.424-1.712 3.424-5.137 3.424-8.562v-25.686h44.522v23.973c0 3.425 1.713 6.85 5.137 10.274 3.424 1.713 6.85 3.425 10.274 3.425h20.548c3.424 0 6.85-1.713 10.274-5.137 3.424-3.425 5.137-6.85 5.137-10.274v-22.261h37.672v23.973c0 3.425 1.712 6.849 5.137 10.274 1.712 1.712 5.137 3.425 8.562 3.425h20.548c3.425 0 6.849-1.713 10.274-5.137s5.137-6.85 5.137-10.274v-22.261h42.81v25.685c0 3.425 1.712 6.85 3.425 8.562s5.137 3.425 8.562 3.425h25.685c3.425 0 6.849-1.713 8.562-3.425s3.425-5.137 3.425-8.562v-25.685h61.645c6.849 0 13.699-1.712 17.123-6.849s6.849-10.274 6.849-17.124v-424.669c0-6.849-1.712-13.699-6.849-17.123s-10.274-6.849-17.123-6.849h-448.642c-6.849 0-13.699 1.712-17.123 6.849s-8.562 8.562-8.562 15.411v426.382c0 6.849 1.712 13.699 6.849 17.123s10.274 6.85 17.123 6.85h61.645v25.685c0 3.425 1.713 6.849 3.424 8.562 3.424 1.712 6.85 3.424 10.274 3.424h25.686zM53.084 389.244c-1.712-1.713-3.425-5.137-3.425-8.562v-351.037c0-3.425 1.712-6.849 3.425-8.562 3.425-1.712 5.137-3.425 8.562-3.425h376.723c3.425 0 6.849 1.712 8.562 3.425s3.425 5.137 3.425 8.562v351.037c0 3.424-1.712 6.85-3.425 8.562-1.712 1.712-5.137 3.424-8.562 3.424h-25.685v-25.685c0-3.425-1.712-6.849-3.425-8.562-1.712-1.712-5.137-3.424-8.562-3.424h-25.685c-3.425 0-6.849 1.712-8.562 3.424-1.712 1.713-3.425 5.137-3.425 8.562v25.685h-42.81v-22.261c0-3.425-1.712-6.85-5.137-10.274-3.425-3.425-6.849-5.137-10.274-5.137h-20.548c-3.425 0-6.849 1.712-10.274 5.137-3.425 3.424-5.137 6.849-5.137 10.274v22.261h-37.672v-22.261c0-3.425-1.713-6.85-5.137-10.274-3.424-3.425-6.85-5.137-10.274-5.137h-20.548c-3.424 0-6.85 1.712-10.274 5.137-3.424 3.424-5.137 6.849-5.137 10.274v22.261h-42.809v-25.685c0-3.425 0-6.849-3.424-8.562-1.713-1.712-5.137-3.424-8.562-3.424h-25.686c-3.424 0-6.85 1.712-8.562 3.424-1.713 1.713-3.424 5.137-3.424 8.562v25.685h-25.686c-3.425 0-5.137-1.712-8.562-3.424zM89.043 55.331h325.351v261.993h-325.351v-261.993z" horiz-adv-x="500" />
<glyph unicode="&#xe60e;" d="M12.149 467.851c15.621 15.62 32.977 15.62 48.596 0l220.421-220.421c6.942-5.207 10.413-13.885 10.413-22.563s-3.471-17.356-10.413-22.563l-222.156-222.156c-15.62-15.62-31.241-15.62-48.596 0-15.62 15.62-15.62 31.24 1.736 46.861l196.122 197.857-196.122 196.122c-15.62 15.62-15.62 31.24 0 46.861z" horiz-adv-x="292" />
<glyph unicode="&#xe60f;" d="M279.43-19.851c-15.62-15.62-32.976-15.62-48.596 0l-220.421 220.421c-6.942 5.207-10.414 13.885-10.414 24.298 0 10.413 3.471 17.356 10.414 22.563l220.421 220.421c15.62 15.62 31.24 15.62 48.596 0s15.62-31.24-1.736-46.861l-194.387-196.122 194.387-197.858c17.356-15.62 17.356-31.24 1.736-46.861z" horiz-adv-x="292" />
<glyph unicode="&#xe610;" d="M174.977 73.542c-17.585 17.585-17.585 37.127 0 54.712l248.157 248.157c5.863 7.816 15.632 11.724 25.401 11.724 11.724 0 19.539-3.909 25.401-11.724l248.158-248.157c17.585-17.585 17.585-35.172 0-54.712-15.632-17.585-33.218-17.585-50.804 1.954l-222.756 218.849-220.802-218.849c-17.585-19.54-35.172-19.54-52.757-1.954z" horiz-adv-x="899" />
<glyph unicode="&#xe611;" d="M659.288 264.329c0 119.233-147.288 215.671-329.644 215.671-182.356 0-329.644-96.438-329.644-215.671 0-119.233 147.287-215.671 329.644-215.671 24.548 0 47.342 1.753 70.137 5.26 47.343-43.836 117.479-103.452 117.479-78.904 0 21.041-1.754 73.644-5.26 110.466 89.424 36.822 147.288 103.452 147.288 178.85z" horiz-adv-x="660" />
<glyph unicode="&#xe612;" d="M12.149 467.851c15.621 15.62 32.977 15.62 48.596 0l220.421-220.421c6.942-5.207 10.413-13.885 10.413-22.563s-3.471-17.356-10.413-22.563l-222.156-222.156c-15.62-15.62-31.241-15.62-48.596 0-15.62 15.62-15.62 31.24 1.736 46.861l196.122 197.857-196.122 196.122c-15.62 15.62-15.62 31.24 0 46.861zM275.959 467.851c15.62 15.62 32.976 15.62 48.596 0l220.421-220.421c6.942-5.207 10.413-13.885 10.413-22.563s-3.471-17.356-10.413-22.563l-222.156-222.156c-15.62-15.62-31.24-15.62-48.596 0-15.62 15.62-15.62 31.24 1.736 46.861l194.387 197.857-194.387 196.122c-15.62 15.62-17.356 31.24 0 46.861z" horiz-adv-x="556" />
<glyph unicode="&#xe613;" d="M46.234 300.201v5.137c0 11.987 1.712 23.973 3.425 34.248l-39.385 30.822c5.137 13.699 13.699 27.398 22.261 41.097l47.947-18.836c8.562 8.562 17.123 17.124 30.823 23.973l-6.85 51.371c8.562 1.713 15.412 5.137 23.973 6.85s13.699 3.424 20.548 5.137l20.548-46.234h5.137c11.987 0 22.261-1.712 34.248-5.137l30.822 41.097c13.699-5.137 27.398-13.699 41.097-22.261l-18.836-47.946c8.562-8.562 17.123-18.836 23.973-30.823l51.371 6.85c1.712-6.85 5.137-15.411 6.849-22.261 1.712-6.849 3.425-15.411 5.137-22.261l-46.234-20.548v-5.137c0-11.986-1.712-22.261-5.137-34.247l41.097-30.823c-5.137-13.699-13.699-29.11-22.261-41.097l-47.947 18.836c-8.562-8.562-18.836-17.123-30.822-23.973l6.85-51.371c-6.85-3.425-15.411-5.137-22.261-8.562s-15.411-3.425-22.261-5.137l-20.548 46.234h-5.137c-11.987 0-22.261 1.712-34.248 5.137l-30.823-41.097c-13.699 6.849-27.398 15.411-41.097 23.973l18.836 47.947c-8.562 8.562-17.123 17.124-23.973 30.822l-51.371-6.85c-3.425 8.562-5.137 15.411-8.562 23.973-1.712 6.849-3.425 15.411-5.137 22.261l47.947 18.836zM109.592 305.338c0-18.836 6.85-34.247 18.836-46.234 13.699-11.987 27.398-17.124 44.522-17.124 18.836 0 34.248 6.85 46.234 18.836 11.987 13.699 18.836 27.398 18.836 44.522 0 3.424-1.713 10.274-3.424 17.124-3.424 13.699-11.987 25.685-23.973 34.247-11.987 8.562-23.973 13.699-37.672 13.699-3.424 0-10.274-1.712-17.124-3.424-11.987-3.425-23.973-11.987-32.535-23.973-8.562-10.274-13.699-23.973-13.699-37.672zM284.254 84.442c0 5.137-1.712 10.274-1.712 13.699 0 3.425 0 6.849 0 8.562 0 3.425 0 5.137 0 10.274 0 3.425 1.712 8.562 1.712 13.699l-30.822 25.685c5.137 13.699 11.986 27.398 22.261 39.385l37.672-15.411c11.986 11.986 25.685 18.836 39.385 22.261l6.849 41.097c6.849 1.713 15.411 1.713 22.261 1.713 8.562 0 15.411 0 22.261-1.713l6.849-41.097c15.411-3.425 27.398-11.986 39.385-22.261l37.672 15.411c10.274-11.986 17.123-23.973 22.261-39.385l-32.535-25.685c1.712-8.562 3.425-15.411 3.425-22.261 0-6.849-1.712-13.699-3.425-22.261l32.535-25.685c-5.137-13.699-11.986-27.398-22.261-39.385l-37.672 13.699c-11.986-10.274-25.685-18.836-39.385-22.261l-6.849-41.097c-6.849-1.712-15.411-1.712-22.261-1.712-6.849 0-15.411 0-22.261 1.712l-6.849 41.097c-13.699 5.137-27.398 11.986-39.385 22.261l-37.672-13.699c-10.274 11.986-17.123 25.685-22.261 39.385l30.823 23.973zM383.572 57.043c13.699 0 25.685 5.137 35.96 15.411 10.274 10.274 15.411 22.261 15.411 35.96 0 13.699-5.137 25.685-15.411 35.96-10.274 10.274-22.261 15.411-35.96 15.411-13.699 0-25.685-5.137-35.96-15.411-10.274-10.274-15.411-22.261-15.411-35.96 0-13.699 5.137-25.685 15.411-35.96 10.274-10.274 22.261-15.411 35.96-15.411z" horiz-adv-x="514" />
<glyph unicode="&#xe614;" d="M0 326.4h170.667v-358.4h-170.667v358.4zM204.8 480h170.666v-512h-170.667v512zM409.6 411.733h170.667v-443.733h-170.667v443.733z" horiz-adv-x="581" />
<glyph unicode="&#xe615;" d="M181.512-23.438l-171.238 166.101c-6.849 6.849-10.274 13.699-10.274 22.261s1.712 17.123 8.562 23.973c6.849 6.849 13.699 10.274 22.261 10.274s17.123-3.425 23.973-8.562l142.127-138.702 258.568 414.394c5.137 6.849 11.986 11.986 20.548 13.699s17.123 0 23.973-5.137 11.986-11.987 13.699-20.548 0-17.124-5.137-25.686l-279.117-446.93c-1.713-1.712-1.713-3.425-1.713-3.425s-1.713-1.712-5.137-3.425l-1.713-1.712c-3.424-1.712-6.85-3.425-10.274-5.137 0 0-1.713 0-3.424 0-1.713-1.713-5.137-1.713-6.85 0-1.713 0-3.424 0-5.137 0-1.713 1.712-3.424 1.712-5.137 3.425-1.713 1.712-3.424 1.712-5.137 1.712-1.713 1.712-1.713 1.712-3.424 3.425 0 0 0 0 0 0z" horiz-adv-x="516" />
<glyph unicode="&#xe616;" d="M512 224c0-69.974-25.6-129.707-75.094-180.906s-110.933-75.094-180.906-75.094-129.707 25.6-180.906 75.094-75.094 110.933-75.094 180.906 25.6 131.413 75.094 180.906 110.933 75.094 180.906 75.094 129.707-25.6 180.906-75.094 75.094-110.933 75.094-180.906zM477.866 224c0 61.44-22.187 112.64-64.853 157.014s-95.574 64.853-157.013 64.853-114.347-22.186-157.013-64.853-64.853-95.574-64.853-157.014 22.186-112.64 64.853-157.014 95.573-64.853 157.013-64.853 112.64 22.187 157.013 64.853 64.853 95.573 64.853 157.014zM404.48 235.946c3.413-3.413 5.12-6.827 5.12-11.946s-1.707-8.534-5.12-11.947c-3.413-3.413-6.827-5.12-11.947-5.12h-273.067c-5.12 0-8.534 1.707-11.947 5.12s-5.12 6.827-5.12 11.947c0 5.12 1.707 8.534 5.12 11.947 3.413 3.413 6.826 5.12 11.947 5.12h273.067c5.12 0 8.534-1.707 11.947-5.12z" />
<glyph unicode="&#xe617;" d="M512 224c0-69.974-25.6-129.707-75.094-180.906s-110.933-75.094-180.906-75.094-129.707 25.6-180.906 75.094-75.094 110.933-75.094 180.906 25.6 131.413 75.094 180.906 110.933 75.094 180.906 75.094 129.707-25.6 180.906-75.094 75.094-110.933 75.094-180.906zM477.866 224c0 61.44-22.187 112.64-64.853 157.014s-95.574 64.853-157.013 64.853-114.347-22.186-157.013-64.853-64.853-95.574-64.853-157.014 22.186-112.64 64.853-157.014 95.573-64.853 157.013-64.853 112.64 22.187 157.013 64.853 64.853 95.573 64.853 157.014zM404.48 235.946c3.413-3.413 5.12-6.827 5.12-11.946s-1.707-8.534-5.12-11.947c-3.413-3.413-6.827-5.12-11.947-5.12h-119.466v-119.466c0-5.12-1.707-8.534-5.12-11.947-3.413-3.413-6.827-5.12-11.947-5.12-5.12 0-8.534 1.707-11.947 5.12-3.413 3.413-5.12 6.827-5.12 11.947v119.466h-119.466c-5.12 0-8.534 1.707-11.947 5.12s-5.12 6.827-5.12 11.947c0 5.12 1.707 8.534 5.12 11.947 3.413 3.413 6.826 5.12 11.947 5.12h119.466v119.466c0 5.12 1.707 8.534 5.12 11.947 1.707 3.413 6.827 5.12 11.947 5.12 5.12 0 8.534-1.707 11.947-5.12 3.413-3.413 5.12-6.827 5.12-11.947v-119.466h119.466c5.12 0 8.534-1.707 11.947-5.12z" />
<glyph unicode="&#xe618;" d="M436.656 43.344c-49.659-49.659-109.592-75.344-181.512-75.344s-131.853 25.685-181.512 75.344-73.632 109.592-73.632 179.8c0 70.207 25.686 131.853 75.344 181.512s109.592 75.344 181.512 75.344c70.207 0 131.853-25.685 181.512-75.344s75.344-109.592 75.344-181.512-25.685-130.14-77.057-179.799zM412.683 67.317c42.81 42.81 65.070 95.893 65.070 157.538s-22.261 113.017-65.070 157.538-95.893 63.358-155.826 63.358-114.729-22.261-157.538-65.070-65.070-95.893-65.070-157.538 22.261-113.017 65.070-157.538 95.893-65.070 157.538-65.070 113.017 22.261 155.826 66.782zM369.873 127.251c0-5.137-1.712-8.562-5.137-11.986s-6.849-5.137-11.986-5.137c-5.137 0-8.562 1.712-11.986 5.137l-83.906 83.906-85.618-83.906c-3.424-3.425-6.85-5.137-11.987-5.137s-8.562 1.712-11.987 5.137c-3.424 3.425-5.137 6.849-5.137 11.986 0 5.137 1.713 8.562 5.137 11.986l83.906 83.906-83.906 85.618c-3.424 3.424-5.137 6.85-5.137 11.986s1.713 8.562 5.137 11.987c3.424 3.425 6.85 5.137 11.987 5.137s8.562-1.712 11.987-5.137l83.906-83.906 83.906 83.906c3.425 3.425 6.849 5.137 11.986 5.137s8.562-1.712 11.986-5.137c3.425-3.425 5.137-6.849 5.137-11.987s-1.712-8.562-5.137-11.986l-82.194-85.618 83.906-83.906c3.425-3.425 5.137-6.849 5.137-11.986z" />
<glyph unicode="&#xe619;" d="M1.718-32c0 0-1.718 6.873 0 46.389 34.362 17.181 192.429 60.134 201.020 63.57v29.208l12.027 3.436c0 0 5.155 46.389 5.155 53.262 0 0-18.899 36.081-22.335 58.416 0 0-15.463 0-17.181 15.463-1.718 17.181 0 27.49-3.436 39.517-1.718 12.027 6.873 24.054 13.745 20.618 0 0-17.181 84.188 0 108.241 12.027 17.181 46.389 58.416 128.859 72.161 0 0 20.618 1.718 27.49 0 5.154-1.718 3.436-3.436-5.154-13.745 0 0 42.953-25.772 56.698-68.725 8.591-25.772 5.154-82.47 0-97.933 0 0 12.027 1.718 10.308-13.745-1.718-25.772-3.436-72.161-20.618-63.57 0 0 0-53.262-17.181-63.57 0 0-5.154-41.235 1.718-42.953h10.308c0 0 3.436-34.363 12.027-42.953 0 0 175.249-44.671 192.429-65.288 0-20.618 0-41.235 0-41.235h-585.879z" horiz-adv-x="590" />
<glyph unicode="&#xe61a;" d="M715.473 369.756c17.035-17.035 17.035-35.966 0-53.002l-240.403-240.403c-5.68-7.572-15.144-11.357-24.607-11.357s-18.93 3.786-24.607 11.357l-242.297 242.297c-17.035 17.035-17.035 34.073 0 53.002s34.073 17.036 51.109-1.893l213.902-213.902 215.795 213.902c17.035 17.036 34.073 17.036 51.109 0z" horiz-adv-x="899" />
<glyph unicode="&#xe61b;" d="M400 416h-288c-26.512 0-48-21.488-48-48v-16h384v16c0 26.512-21.488 48-48 48zM316.16 448l7.056-50.496h-134.432l7.056 50.496h120.32zM320 480h-128c-13.2 0-25.488-10.688-27.328-23.776l-9.36-66.96c-1.824-13.072 7.472-23.776 20.672-23.776h160c13.2 0 22.512 10.688 20.672 23.776l-9.36 66.96c-1.824 13.072-14.128 23.776-27.328 23.776v0zM408 320h-304c-17.6 0-30.688-14.336-29.104-31.872l26.208-288.256c1.6-17.52 17.296-31.872 34.896-31.872h240c17.6 0 33.296 14.336 34.896 31.872l26.208 288.256c1.6 17.52-11.504 31.872-29.104 31.872zM192 32h-48l-16 224h64v-224zM288 32h-64v224h64v-224zM368 32h-48v224h64l-16-224z" />
<glyph unicode="&#xe61c;" d="M96-32h320l32 352h-384zM320 416v64h-128v-64h-160v-96l32 32h384l32-32v96h-160zM288 416h-64v32h64v-32z" />
<glyph unicode="&#xe61d;" d="M246.582 334.448c0-35.96 0-70.207 0-106.167 0-8.562 3.424-15.411 8.562-22.261 47.947-47.947 95.893-95.893 145.552-143.839 18.836-18.836 18.836-23.973-1.712-39.385-75.344-56.508-159.251-70.208-246.582-32.535-85.618 35.96-136.99 104.455-148.976 196.923-20.549 135.278 83.906 261.993 222.608 273.98 11.987 1.712 18.836-5.137 18.836-17.123 1.713-37.672 1.713-73.632 1.713-109.592zM280.829 356.709c0 34.248 0 68.495 0 102.743 0 13.699 6.849 20.548 20.548 18.836 104.455-11.987 176.375-66.783 212.334-167.813 6.85-17.124 8.562-37.672 11.986-56.508 1.712-11.987-3.424-18.836-17.123-18.836-70.207 0-140.415 0-210.622 0-11.986 0-17.123 5.137-17.123 18.836 0 34.248 0 68.495 0 102.743 0 0 0 0 0 0zM556.521 175.197c-5.137-47.947-23.973-94.18-58.221-133.565-8.562-10.274-17.123-8.562-27.398 0-34.248 34.248-68.495 68.495-102.743 102.743-8.562 8.562-18.836 18.836-27.398 27.398-5.137 5.137-10.274 11.986-5.137 18.836 3.425 5.137 10.274 8.562 17.123 8.562 61.646 0 125.003 0 186.649 0 13.699 3.425 18.836-3.425 17.124-23.973z" horiz-adv-x="557" />
<glyph unicode="&#xe61e;" d="M536.864 208q0-8.864-8.864-18.864l-96-113.136q-12.288-14.576-34.432-24.72t-41.008-10.144h-310.864q-9.712 0-17.28 3.712t-7.568 12.288q0 8.864 8.864 18.864l96 113.136q12.288 14.576 34.432 24.72t41.008 10.144h310.864q9.712 0 17.28-3.712t7.568-12.288zM438.864 306.288v-45.712h-237.712q-26.864 0-56.288-13.568t-46.864-34.144l-97.712-114.864q0 1.136-0.144 3.568t-0.144 3.568v274.288q0 26.288 18.864 45.136t45.136 18.864h91.424q26.288 0 45.136-18.864t18.864-45.136v-9.136h155.424q26.288 0 45.136-18.864t18.864-45.136z" horiz-adv-x="544" />
<glyph unicode="&#xe61f;" d="M508.864 214q0 10-15.136 10h-310.864q-11.424 0-24.432-6.144t-20.432-15.008l-84-103.712q-5.136-6.864-5.136-11.424 0-10 15.136-10h310.864q11.424 0 24.576 6.288t20.288 15.136l84 103.712q5.136 6.288 5.136 11.136zM182.864 260.576h219.424v45.712q0 11.424-8 19.424t-19.424 8h-164.576q-11.424 0-19.424 8t-8 19.424v18.288q0 11.424-8 19.424t-19.424 8h-91.424q-11.424 0-19.424-8t-8-19.424v-243.712l73.136 90q12.576 15.136 33.136 25.008t40 9.856zM545.424 214q0-17.712-13.136-34.288l-84.288-103.712q-12.288-15.136-33.136-25.008t-40-9.856h-310.864q-26.288 0-45.136 18.864t-18.864 45.136v274.288q0 26.288 18.864 45.136t45.136 18.864h91.424q26.288 0 45.136-18.864t18.864-45.136v-9.136h155.424q26.288 0 45.136-18.864t18.864-45.136v-45.712h54.864q15.424 0 28.288-7.008t19.136-20.144q4.288-9.136 4.288-19.424z" horiz-adv-x="544" />
<glyph unicode="&#xe620;" d="M484.576 370.288q11.424 0 19.424-8t8-19.424v-347.424q0-11.424-8-19.424t-19.424-8h-274.288q-11.424 0-19.424 8t-8 19.424v82.288h-155.424q-11.424 0-19.424 8t-8 19.424v192q0 11.424 5.712 25.136t13.712 21.712l116.576 116.576q8 8 21.712 13.712t25.136 5.712h118.864q11.424 0 19.424-8t8-19.424v-93.712q19.424 11.424 36.576 11.424h118.864zM329.136 309.424l-85.424-85.424h85.424v85.424zM146.288 419.136l-85.424-85.424h85.424v85.424zM202.288 234.288l90.288 90.288v118.864h-109.712v-118.864q0-11.424-8-19.424t-19.424-8h-118.864v-182.864h146.288v73.136q0 11.424 5.712 25.136t13.712 21.712zM475.424 4.576v329.136h-109.712v-118.864q0-11.424-8-19.424t-19.424-8h-118.864v-182.864h256z" />
<glyph unicode="&#xe621;" d="M-7928.081 3379.097c-196.847 0-393.677 0-590.523 0-34.117 9.216-56.388 30.294-65.007 65.007 0 128.222 0 256.427 0 384.648 0.325 0.307 0.871 0.563 0.939 0.921 7.663 35.055 30.481 54.954 64.068 64.086 196.847 0 393.677 0 590.524 0 32.922-7.595 54.426-27.631 65.007-59.597 0-130.014 0-260.045 0-390.059-2.218-6.213-4.113-12.544-6.69-18.602-11.008-25.976-32.376-39.099-58.317-46.405zM-7936.324 3851.947c-192.307 0-380.279 0-569.395 0 1.912-2.338 2.68-3.465 3.618-4.403 88.712-88.61 177.391-177.255 266.206-265.762 11.913-11.861 16.538-11.486 29.115 1.058 61.593 61.491 123.085 123.085 184.73 184.525 27.699 27.597 55.672 54.938 85.726 84.582zM-8467.251 3418.521c162.475 0 324.352 0 484.421 0-55.347 55.466-110.95 111.207-166.946 167.338-18.039-18.142-36.761-37.069-55.586-55.876-14.916-14.899-18.449-14.797-33.041-0.153-19.695 19.763-39.475 39.424-58.778 58.709-56.832-56.815-113.203-113.152-170.069-170.018zM-8119.313 3611.494c60.74-60.262 122.556-121.549 184.354-182.869 10.12-10.052 18.501-10.513 25.157 2.151 5.376 10.223 8.123 22.989 8.175 34.646 0.563 118.648 0.342 237.295 0.324 355.943 0 2.919 0 5.837 0 8.943-72.618-72.874-144.367-144.879-218.010-218.811zM-8540.28 3829.863c0-4.711 0-7.765 0-10.82 0-121.771-0.017-243.559 0-365.329 0-3.601-0.085-7.253 0.359-10.803 1.365-11.077 6.587-19.097 14.951-21.606 66.713 66.594 131.977 131.738 197.12 196.778-69.718 69.495-140.237 139.776-212.429 211.78zM-6194.62 3673.566c0 116.378-143.803 210.739-321.177 210.739s-321.177-94.361-321.177-210.739c0-116.378 143.803-210.739 321.177-210.739 23.518 0 46.37 1.758 68.454 4.915 46.251-42.035 114.381-100.147 114.381-77.499 0 20.838-2.543 71.544-4.523 108.083 86.136 37.802 142.865 102.161 142.865 175.24zM-5083.58 3815.082c0 2.747 0 5.495 1.092 8.243s3.294 5.495 5.495 7.697c1.092 2.202 4.403 3.84 6.605 4.95 3.294 1.655 5.495 2.202 8.789 2.202 5.495 0 10.991-1.655 14.285-4.403 4.403-3.294 6.605-7.151 8.789-12.646l106.65-398.012c0-1.093 0-3.294 0-5.495 0-6.041-2.202-11.537-6.605-15.941-3.294-4.403-9.899-7.151-16.486-7.151-4.403 0-9.899 1.655-13.193 4.95-4.403 2.747-6.605 7.151-8.789 12.101l-106.65 397.466c0.017 2.184 0.017 3.84 0.017 6.041zM-4989.014 3810.68c6.605-3.294 13.193-4.95 21.982-4.95 12.1 0 28.587 4.403 50.569 12.646 20.89 8.789 40.687 18.142 60.467 28.041 8.789 4.95 18.688 9.898 28.587 14.848 9.899 4.403 19.797 8.789 30.788 13.193 20.89 8.243 38.485 12.646 51.678 12.646 7.697 0 15.394-1.655 20.89-4.95-3.294-17.050-6.605-32.427-10.991-47.274-3.294-14.848-7.697-28.041-12.1-41.233 5.495-7.151 10.991-14.848 16.486-21.982 5.495-7.697 12.1-14.848 17.596-22.545s10.991-13.738 15.394-19.234c5.495-5.495 8.789-9.898 12.1-13.193l8.789-10.991c-5.495 2.747-13.193 4.403-20.89 4.403-13.193 0-29.679-3.84-50.569-12.646-10.991-4.403-21.982-8.243-30.788-13.193-9.899-4.403-19.797-9.352-29.679-14.848-18.688-9.898-39.578-19.234-60.467-27.494-20.89-8.789-38.485-12.646-50.569-12.646-8.789 0-15.394 1.655-21.982 4.95l-47.292 176.452zM-4676.813 2544.043c-15.992-15.309-31.641-15.309-46.95 0l-217.002 217.003c-6.963 5.564-10.427 13.209-10.427 22.954s3.481 17.391 10.427 22.954l217.002 217.003c15.309 15.309 30.959 15.309 46.95 0s15.65-30.601-1.041-45.91l-191.983-194.048 191.966-194.065c16.708-15.291 17.050-30.601 1.058-45.892zM-6806.801 2652.672c-15.309 15.992-15.309 31.642 0 46.95l217.002 217.003c5.564 6.963 13.209 10.427 22.954 10.427s17.391-3.481 22.954-10.427l217.002-217.003c15.309-15.309 15.309-30.959 0-46.95s-30.6-15.65-45.909 1.041l-194.065 191.966-194.065-191.966c-15.275-16.691-30.566-17.032-45.875-1.041zM-8018.039 2915.328c15.309-15.992 15.309-31.642 0-46.95l-217.002-217.003c-5.564-6.963-13.21-10.427-22.954-10.427-9.745 0-17.391 3.481-22.954 10.427l-217.020 217.003c-15.309 15.309-15.309 30.959 0 46.95s30.601 15.65 45.909-1.041l194.065-191.966 194.065 191.966c15.275 16.691 30.583 17.032 45.892 1.041zM-3256.32 3023.957c15.992 15.309 31.642 15.309 46.95 0l217.003-217.003c6.963-5.564 10.427-13.209 10.427-22.954s-3.481-17.391-10.427-22.954l-217.003-217.003c-15.309-15.309-30.959-15.309-46.95 0s-15.65 30.601 1.041 45.91l191.983 194.048-191.966 194.065c-16.709 15.291-17.050 30.601-1.058 45.892zM-1561.617 3023.957c15.992 15.309 31.641 15.309 46.95 0l217.003-217.003c6.963-5.564 10.428-13.209 10.428-22.954s-3.482-17.391-10.428-22.954l-217.003-217.003c-15.309-15.309-30.959-15.309-46.95 0s-15.65 30.601 1.041 45.91l191.966 194.048-191.966 194.065c-16.691 15.291-17.033 30.601-1.041 45.892zM-1302.358 3023.957c15.992 15.309 31.641 15.309 46.95 0l217.003-217.003c6.963-5.564 10.428-13.209 10.428-22.954s-3.482-17.391-10.428-22.954l-217.003-217.003c-15.309-15.309-30.959-15.309-46.95 0-15.992 15.309-15.65 30.601 1.041 45.91l191.983 194.048-191.966 194.065c-16.708 15.291-17.050 30.601-1.058 45.892zM-3138.919 3384.576c-11.554 23.262-22.511 45.329-33.434 67.396-35.481 71.629-71.407 143.035-106.309 214.938-26.129 53.811-23.381 107.195 9.847 156.911 32.905 49.22 80.64 72.635 139.861 69.189 86.682-5.017 151.569-78.626 146.791-165.171-1.144-20.617-6.298-40.38-15.497-58.965-46.114-93.115-92.28-186.215-138.428-279.313-0.631-1.246-1.383-2.423-2.833-4.983zM-3139.653 3690.53c36.608-0.443 66.151 28.382 66.799 65.144 0.615 35.396-29.030 66.014-64.239 66.338-37.325 0.341-66.885-28.245-67.448-65.195-0.563-35.891 28.774-65.843 64.887-66.287zM-1244.723 3816.636c-49.135 49.135-108.408 73.694-177.851 73.694-69.427 0-128.717-24.559-177.851-73.694-49.135-49.135-73.694-108.407-73.694-177.852 0-69.427 24.559-128.717 73.694-177.851 49.135-49.135 108.408-73.694 177.851-73.694 69.427 0 128.717 24.559 177.851 73.694 49.135 49.135 73.694 108.407 73.694 177.851 0 69.427-24.559 128.717-73.694 177.851zM-1266.824 3483.050c-42.906-42.905-94.822-64.358-155.734-64.358-60.928 0-112.828 21.453-155.734 64.358s-64.359 94.823-64.359 155.733c0 60.928 21.453 112.827 64.359 155.733s94.822 64.358 155.734 64.358c60.928 0 112.828-21.453 155.734-64.358s64.359-94.823 64.359-155.733c0-60.928-21.453-112.827-64.359-155.733zM-1367.62 3512.798l-4.591-18.722c-13.722-5.41-24.696-9.541-32.87-12.374-8.192-2.85-17.698-4.267-28.502-4.267-16.64 0-29.593 4.062-38.81 12.169-9.233 8.124-13.841 18.415-13.841 30.907 0 4.847 0.341 9.814 1.041 14.865 0.699 5.069 1.809 10.786 3.328 17.169l17.169 60.758c1.536 5.82 2.833 11.332 3.874 16.537 1.041 5.206 1.553 9.95 1.553 14.251 0 7.765-1.604 13.175-4.795 16.231-3.191 3.055-9.302 4.574-18.363 4.574-4.455 0-9.011-0.7-13.67-2.082-4.659-1.383-8.653-2.697-11.998-3.959l4.591 18.722c11.247 4.574 21.999 8.499 32.29 11.759 10.274 3.26 20.002 4.881 29.167 4.881 16.521 0 29.27-3.994 38.229-11.963 8.943-7.987 13.431-18.347 13.431-31.113 0-2.646-0.324-7.287-0.938-13.943-0.614-6.656-1.758-12.766-3.43-18.313l-17.118-60.552c-1.382-4.864-2.646-10.41-3.755-16.64-1.11-6.229-1.672-10.957-1.672-14.148 0-8.055 1.809-13.517 5.393-16.435 3.601-2.919 9.848-4.369 18.705-4.369 4.147 0 8.858 0.734 14.114 2.184 5.307 1.468 9.097 2.747 11.469 3.874zM-1363.251 3766.835c0-10.547-3.994-19.524-11.964-26.948s-17.579-11.128-28.825-11.128-20.872 3.704-28.911 11.128c-8.039 7.424-12.066 16.401-12.066 26.948 0 10.547 4.027 19.559 12.066 27.050s17.681 11.23 28.911 11.23 20.855-3.738 28.825-11.23c7.97-7.492 11.964-16.503 11.964-27.050zM135.919 3893.334c3.328 0 6.127-1.144 8.414-3.43 2.287-2.287 3.43-5.086 3.43-8.414v-25.532h44.834v23.040c0 3.738 1.451 7.048 4.352 9.967 2.901 2.901 6.23 4.352 9.967 4.352h21.162c3.738 0 7.048-1.45 9.967-4.352 2.901-2.901 4.352-6.229 4.352-9.967v-23.040h37.359v23.040c0 3.738 1.45 7.048 4.352 9.967 2.901 2.901 6.229 4.352 9.967 4.352h21.163c3.738 0 7.048-1.45 9.967-4.352 2.901-2.901 4.352-6.229 4.352-9.967v-23.040h42.343v25.532c0 3.328 1.144 6.127 3.43 8.414s5.086 3.43 8.414 3.43h26.146c3.328 0 6.127-1.144 8.414-3.43s3.43-5.086 3.43-8.414v-25.532h62.259c7.048 0 12.971-2.39 17.75-7.168 4.779-4.778 7.168-10.684 7.168-17.749v-423.39c0-7.048-2.389-12.97-7.168-17.749-4.779-4.778-10.683-7.168-17.75-7.168h-448.307c-7.049 0-12.971 2.39-17.75 7.168-4.779 4.778-7.168 10.684-7.168 17.749v423.39c0 7.048 2.389 12.97 7.168 17.749 4.779 4.778 10.683 7.168 17.75 7.168h62.259v25.532c0 3.328 1.144 6.127 3.43 8.414 2.27 2.287 5.086 3.43 8.397 3.43h26.146zM64.017 3802.744c-2.287-2.287-3.431-5.086-3.431-8.414v-349.918c0-3.328 1.144-6.127 3.431-8.414 2.287-2.287 5.086-3.43 8.414-3.43h374.835c3.328 0 6.127 1.144 8.414 3.43s3.43 5.086 3.43 8.414v349.918c0 3.328-1.144 6.127-3.43 8.414-2.287 2.287-5.086 3.43-8.414 3.43h-25.549v-25.532c0-3.328-1.144-6.127-3.43-8.414-2.287-2.287-5.086-3.43-8.414-3.43h-26.146c-3.328 0-6.127 1.144-8.414 3.43s-3.43 5.086-3.43 8.414v25.532h-42.343v-23.040c0-3.738-1.45-7.048-4.352-9.967-2.901-2.901-6.229-4.352-9.967-4.352h-21.163c-3.738 0-7.048 1.45-9.967 4.352-2.901 2.901-4.352 6.229-4.352 9.967v23.040h-37.359v-23.040c0-3.738-1.451-7.048-4.352-9.967-2.901-2.901-6.23-4.352-9.967-4.352h-21.162c-3.738 0-7.048 1.45-9.967 4.352-2.901 2.901-4.352 6.229-4.352 9.967v23.040h-44.817v-25.532c0-3.328-1.143-6.127-3.43-8.414-2.287-2.287-5.086-3.43-8.414-3.43h-26.146c-3.328 0-6.127 1.144-8.414 3.43s-3.43 5.086-3.43 8.414v25.532h-25.514c-3.311-0.017-6.127-1.144-8.397-3.43zM99.806 3469.943h323.772v261.512h-323.772v-261.512zM56.576 2860.885v4.693c0 11.912 1.365 23.142 4.096 33.689l-40.141 30.771c5.462 14.063 13.090 27.836 22.852 41.318l47.463-18.756c7.817 8.602 17.784 16.606 29.883 24.030l-6.451 50.398c8.005 3.123 15.719 5.769 23.142 7.919 7.424 2.151 14.643 3.704 21.674 4.693l20.514-45.994h4.694c11.52 0 22.75-1.468 33.69-4.403l30.771 40.431c14.063-5.666 27.836-13.278 41.318-22.852l-18.757-47.463c9.37-8.789 17.391-18.756 24.030-29.883l50.398 6.451c3.123-7.424 5.717-14.95 7.765-22.562s3.67-15.138 4.83-22.562l-45.995-20.805v-4.403c0-11.52-1.467-22.664-4.403-33.399l40.141-30.771c-5.462-14.456-12.988-28.229-22.562-41.318l-47.462 18.756c-8.789-9.369-18.858-17.391-30.174-24.030l6.742-50.398c-7.424-3.123-14.951-5.718-22.562-7.765s-15.138-3.669-22.562-4.83l-20.804 45.994h-4.403c-11.52 0-22.665 1.468-33.399 4.403l-30.771-40.431c-14.063 5.461-27.835 13.090-41.319 22.852l18.466 47.463c-8.602 7.816-16.606 17.784-24.030 29.883l-50.398-6.451c-3.123 8.005-5.768 15.718-7.919 23.142s-3.704 14.643-4.694 21.675l46.336 20.514zM120.166 2865.579c0-18.944 6.451-34.372 19.336-46.302 13.090-11.912 28.024-17.869 44.834-17.869 18.552 0 33.894 6.451 45.995 19.336 12.305 13.090 18.466 28.023 18.466 44.834 0 4.096-1.075 9.967-3.226 17.579-3.909 13.875-11.623 25.105-23.142 33.689-11.52 8.789-24.218 13.193-38.093 13.193-3.909 0-9.677-1.075-17.288-3.226-13.671-3.704-25.002-11.434-33.997-23.142-8.602-11.537-12.886-24.235-12.886-38.093zM294.212 2644.941c-0.785 5.273-1.365 9.814-1.758 13.619s-0.58 6.878-0.58 9.233c0 2.731 0.188 5.956 0.58 9.677s0.973 8.005 1.758 12.885l-31.062 26.078c5.274 14.456 12.8 27.443 22.562 38.963l38.093-14.643c11.913 11.332 25.105 18.944 39.56 22.852l6.451 40.431c7.219 1.177 14.643 1.758 22.272 1.758 7.817 0 15.428-0.581 22.853-1.758l6.451-40.431c14.848-4.096 28.126-11.725 39.851-22.852l37.803 14.643c9.762-11.52 17.288-24.508 22.562-38.963l-31.642-26.078c1.945-7.816 2.935-15.326 2.935-22.562 0-6.843-0.973-14.456-2.935-22.852l31.642-25.787c-5.086-13.671-12.595-26.658-22.562-38.963l-37.803 14.353c-12.118-10.547-25.395-18.159-39.851-22.852l-6.451-40.141c-7.424-1.177-15.036-1.758-22.853-1.758-7.611 0-15.036 0.581-22.272 1.758l-6.451 40.141c-14.456 4.301-27.648 11.912-39.56 22.852l-38.093-14.353c-9.967 12.305-17.476 25.293-22.562 38.963l31.062 25.787zM392.072 2617.976c14.063 0 25.976 4.881 35.755 14.643 9.762 9.762 14.643 21.487 14.643 35.157 0 13.875-4.881 25.686-14.643 35.448-9.762 9.967-21.675 14.95-35.755 14.95-13.875 0-25.583-4.983-35.158-14.95-9.762-9.762-14.643-21.59-14.643-35.448 0-13.671 4.881-25.395 14.643-35.157 9.762-9.762 21.487-14.643 35.158-14.643zM-8301.073 1685.623l-170.462 166.093c-6.792 5.82-10.445 13.363-10.923 22.579-0.478 9.233 2.424 17.237 8.738 24.047 6.315 6.793 13.841 10.206 22.579 10.206s16.521-2.918 23.313-8.738l141.329-138.41 257.877 412.313c4.864 6.793 11.657 11.162 20.395 13.107s16.76 0.478 24.047-4.369c7.288-4.864 11.895-11.657 13.841-20.395 1.945-8.738 0.478-16.998-4.369-24.764l-278.272-445.832c-0.973-1.946-1.707-3.158-2.184-3.635 0 0-2.184-1.707-5.103-3.635l-1.451-1.45c-2.918-1.946-6.315-3.397-10.206-4.369 0 0-1.945 0-2.918 0-1.945-0.973-4.369-0.973-7.288 0-1.945 0-3.891 0-5.819 0-0.973 0.973-2.918 1.946-5.819 2.918-1.945 0.973-3.397 1.45-4.369 1.45-0.973 0.973-1.707 1.707-1.707 1.707-0.99 0.921-1.229 1.178-1.229 1.178zM-6279.032 1931.076c0-70.281-25.020-130.457-75.077-180.514-50.056-50.056-110.217-75.076-180.514-75.076-70.28 0-130.458 25.020-180.514 75.076-50.056 50.056-75.077 110.216-75.077 180.514 0 70.281 25.020 130.457 75.077 180.514 50.056 50.056 110.217 75.077 180.514 75.077 70.28 0 130.458-25.020 180.514-75.077 50.039-50.056 75.077-110.234 75.077-180.514zM-6313.114 1931.076c0 61.064-21.658 113.237-64.956 156.553-43.315 43.315-95.488 64.956-156.552 64.956-61.065 0-113.238-21.658-156.552-64.956-43.315-43.315-64.956-95.488-64.956-156.553 0-61.064 21.658-113.237 64.956-156.553 43.315-43.315 95.488-64.956 156.552-64.956 61.065 0 113.238 21.658 156.552 64.956 43.298 43.315 64.956 95.505 64.956 156.553zM-6386.074 1943.33c3.191-3.191 4.796-7.271 4.796-12.254 0-4.966-1.605-9.045-4.796-12.254-3.191-3.191-7.27-4.795-12.254-4.795h-272.623c-4.967 0-9.046 1.604-12.254 4.795-3.191 3.191-4.796 7.271-4.796 12.254 0 4.966 1.605 9.045 4.796 12.254 3.191 3.191 7.27 4.795 12.254 4.795h272.623c4.984-0.017 9.063-1.604 12.254-4.795zM-4552.551 1931.076c0-70.281-25.020-130.457-75.077-180.514s-110.217-75.076-180.514-75.076c-70.28 0-130.458 25.020-180.514 75.076-50.056 50.056-75.077 110.216-75.077 180.514 0 70.281 25.020 130.457 75.077 180.514 50.056 50.056 110.217 75.077 180.514 75.077 70.28 0 130.458-25.020 180.514-75.077 50.039-50.056 75.077-110.234 75.077-180.514zM-4586.632 1931.076c0 61.064-21.658 113.237-64.956 156.553-43.315 43.315-95.488 64.956-156.552 64.956-61.065 0-113.238-21.658-156.552-64.956-43.315-43.315-64.956-95.488-64.956-156.553 0-61.064 21.658-113.237 64.956-156.553 43.315-43.315 95.488-64.956 156.552-64.956 61.065 0 113.238 21.658 156.552 64.956 43.298 43.315 64.956 95.505 64.956 156.553zM-4659.575 1943.33c3.191-3.191 4.796-7.271 4.796-12.254 0-4.966-1.605-9.045-4.796-12.254-3.191-3.191-7.27-4.795-12.254-4.795h-119.279v-119.279c0-4.966-1.605-9.045-4.796-12.254-3.191-3.191-7.27-4.795-12.254-4.795s-9.046 1.604-12.254 4.795c-3.191 3.191-4.796 7.271-4.796 12.254v119.279h-119.279c-4.967 0-9.046 1.604-12.254 4.795-3.191 3.191-4.796 7.271-4.796 12.254 0 4.966 1.605 9.045 4.796 12.254 3.191 3.191 7.27 4.795 12.254 4.795h119.279v119.279c0 4.967 1.605 9.046 4.796 12.254s7.27 4.796 12.254 4.796 9.046-1.604 12.254-4.796 4.796-7.27 4.796-12.254v-119.279h119.279c4.967-0.017 9.046-1.604 12.254-4.795zM-2975.829 1750.358c-49.698-49.698-109.943-74.547-180.736-74.547s-131.021 24.849-180.736 74.547c-49.698 49.698-74.547 109.944-74.547 180.736 0 70.793 24.849 131.021 74.547 180.736 49.698 49.698 109.943 74.547 180.736 74.547s131.021-24.849 180.736-74.547c49.698-49.698 74.547-109.944 74.547-180.736 0-70.793-24.849-131.038-74.547-180.736zM-2999.927 1774.438c43.178 43.178 64.768 95.386 64.768 156.638 0 61.253-21.59 113.459-64.768 156.638-43.178 43.178-95.385 64.768-156.638 64.768s-113.459-21.59-156.638-64.768c-43.178-43.179-64.768-95.386-64.768-156.638 0-61.253 21.59-113.459 64.768-156.638 43.178-43.178 95.385-64.768 156.638-64.768s113.459 21.607 156.638 64.768zM-3042.85 1834.684c0-4.523-1.758-8.534-5.273-12.049s-7.526-5.274-12.049-5.274-8.534 1.758-12.049 5.274l-84.343 84.343-84.343-84.343c-3.515-3.515-7.526-5.274-12.049-5.274s-8.534 1.758-12.049 5.274c-3.515 3.515-5.273 7.526-5.273 12.049s1.758 8.534 5.273 12.049l84.343 84.343-84.343 84.343c-3.515 3.515-5.273 7.526-5.273 12.049s1.758 8.534 5.273 12.049c3.515 3.515 7.526 5.274 12.049 5.274s8.534-1.758 12.049-5.274l84.343-84.343 84.343 84.343c3.515 3.515 7.526 5.274 12.049 5.274s8.534-1.758 12.049-5.274c3.515-3.515 5.273-7.526 5.273-12.049s-1.758-8.534-5.273-12.049l-84.343-84.343 84.343-84.343c3.515-3.515 5.273-7.526 5.273-12.049zM-1721.566 1677.431c0 0-2.457 7.322 0 46.438 33.399 17.118 190.634 59.46 199.594 63.539l0.802 29.321 12.237 3.243c0 0 4.881 45.637 4.881 52.975 0 0-18.739 36.642-22.818 57.839 0 0-15.463 0-17.083 15.496-2.457 16.282 0 26.863-4.079 39.1-2.457 11.383 6.503 23.62 13.824 21.162 0 0-16.282 83.917 0 106.735 11.418 16.282 46.438 57.839 128.717 72.499 0 0 20.361 2.458 26.897-0.836 4.881-1.622 4.079-3.243-5.7-13.824 0 0 42.36-26.061 56.217-67.635 8.123-26.061 4.881-82.278 0-96.938 0 0 12.203 2.457 10.582-13.039-2.457-25.242-3.243-71.68-21.197-62.72 0 0-0.802-52.139-16.282-62.72 0 0-4.881-40.721 2.457-42.393h10.582c0 0 4.079-33.399 12.237-42.36 0 0 174.319-44.8 191.437-64.341 0.802-21.197 0-41.557 0-41.557h-583.304zM532.531 2174.72c16.657-16.657 16.298-32.973-1.092-48.913l-193.467-195.635 171.725-191.283c15.941-15.94 15.941-32.239 0-48.913s-32.615-16.299-49.988 1.092l-171.725 191.283-191.283-191.283c-15.941-17.391-31.88-17.749-47.821-1.092s-15.941 32.973 0 48.913l193.468 195.635-171.742 191.283c-15.941 15.941-15.941 32.239 0 48.913s32.614 16.298 49.989-1.093l171.725-191.283 191.283 191.283c15.957 17.391 32.256 17.767 48.93 1.093zM-3198.055 1269.231c-6.758 6.759-10.12 15.377-10.12 25.89 0 10.496 3.379 19.131 10.12 25.89 6.758 6.758 15.377 10.12 25.89 10.12h648.26c10.496 0 19.131-3.379 25.89-10.12s10.12-15.377 10.12-25.89c0-10.496-3.379-19.131-10.12-25.89s-15.377-10.12-25.89-10.12h-648.26c-10.513 0-19.149 3.379-25.89 10.12zM-3198.055 1053.15c-6.758 6.758-10.12 15.377-10.12 25.89 0 10.496 3.379 19.131 10.12 25.89 6.758 6.759 15.377 10.12 25.89 10.12h648.26c10.496 0 19.131-3.379 25.89-10.12s10.12-15.377 10.12-25.89c0-10.496-3.379-19.131-10.12-25.89s-15.377-10.12-25.89-10.12h-648.26c-10.513 0-19.149 3.362-25.89 10.12zM-3198.055 837.069c-6.758 6.759-10.12 15.377-10.12 25.89 0 10.496 3.379 19.131 10.12 25.89 6.758 6.759 15.377 10.12 25.89 10.12h648.26c10.496 0 19.131-3.379 25.89-10.12s10.12-15.377 10.12-25.89c0-10.496-3.379-19.132-10.12-25.89s-15.377-10.12-25.89-10.12h-648.26c-10.513-0.017-19.149 3.362-25.89 10.12zM-3689.762 1178.59c5.069 6.093 11.162 9.13 18.262 9.13h339.473c7.099 0 13.193-2.543 18.262-7.611v-1.519c11.162-12.186 11.162-24.866 0-38.059l-170.496-187.238v-1.519c-5.069-5.069-10.905-7.611-17.51-7.611s-12.425 2.543-17.51 7.611l-170.496 188.757c-11.144 13.209-11.144 25.89 0.017 38.059zM-6461.457 1139.405l200.721-4.318-159.949-121.054 57.43-192.068-164.284 114.875-164.898-114.875 58.061 192.068-159.949 121.669 200.721 3.703 66.082 189.593 66.065-189.593zM-8315.818 462.643c15.941-8.773 29.32-18.466 40.175-29.099s21.59-22.852 32.205-36.71 17.544-23.552 20.787-29.099c3.226-5.546 5.769-9.933 7.612-13.159l7.612 12.476c4.625 8.311 11.776 18.363 21.47 30.139 9.694 11.776 20.429 23.671 32.205 35.669 11.776 12.015 25.634 22.17 41.557 30.481s31.522 12.476 46.762 12.476c41.096 0 75.623-14.438 103.56-43.298 27.938-28.859 41.916-64.068 41.916-105.642 0-17.084-2.423-33.945-7.27-50.569-4.847-16.623-10.855-31.863-18.006-45.721-7.151-13.858-17.203-28.741-30.14-44.681s-25.275-29.901-37.051-41.916c-11.776-12.015-26.897-26.095-45.381-42.257s-34.748-29.901-48.828-41.216-31.983-25.634-53.691-42.94c-21.709-17.322-39.714-31.744-54.033-43.298-15.701 14.319-36.71 32.103-63.027 53.334s-49.289 39.714-68.915 55.416c-19.627 15.702-40.636 34.168-63.027 55.416-22.391 21.248-40.755 41.096-55.074 59.579-14.319 18.466-25.976 39.014-34.987 61.645-9.011 22.631-13.039 45.022-12.118 67.192 0 41.096 14.541 76.202 43.639 105.284s64.188 43.639 105.284 43.639c15.24 0.034 30.823-4.352 46.763-13.142zM-6279.032 244.019c0-6.315-2.031-11.486-6.075-15.548-4.062-4.062-9.233-6.075-15.547-6.075s-11.486 2.031-15.547 6.076-6.075 9.233-6.075 15.547v163.533l-401.374-401.374h163.516c6.315 0 11.486-2.031 15.547-6.075s6.075-9.233 6.075-15.548-2.031-11.486-6.075-15.548-9.233-6.075-15.547-6.075h-216.234c-2.697 0-5.41 0.443-8.106 1.348-5.41 2.697-9.455 6.759-12.168 12.168-0.904 2.697-1.349 5.41-1.349 8.106v216.235c0 6.315 2.031 11.486 6.075 15.548 4.062 4.062 9.233 6.075 15.547 6.075s11.486-2.031 15.547-6.075c4.062-4.062 6.075-9.233 6.075-15.548v-163.515l401.374 401.374h-163.516c-6.315 0-11.486 2.031-15.547 6.075s-6.075 9.233-6.075 15.548 2.031 11.486 6.075 15.548 9.233 6.075 15.547 6.075h216.234c2.697 0 5.41-0.443 8.106-1.349 2.697-0.904 4.949-2.696 6.758-5.41 2.697-1.809 4.506-4.062 5.41-6.759s1.349-5.41 1.349-8.106v-216.251zM-3297.86 110.37c39.134 56.064 77.278 110.779 115.473 165.462 14.012 20.053 27.665 40.363 42.274 59.955 23.894 32.034 62.635 38.998 92.467 17.357 29.184-21.18 35.806-59.102 13.688-91.187-56.901-82.552-114.159-164.881-172.459-246.442-32.29-45.175-92.485-54.579-136.721-23.774-43.401 30.242-56.713 89.43-26.026 134.4 71.202 104.363 143.258 208.197 217.395 310.494 39.953 55.142 117.265 65.605 173.175 28.296 56.286-37.563 77.244-112.555 41.063-170.308-44.476-70.981-94.686-138.377-143.906-209.476-10.684 7.475-19.61 13.721-30.378 21.265 33.775 48.264 66.372 94.856 98.952 141.482 13.534 19.371 27.648 38.4 40.363 58.299 27.426 42.94 17.135 96.734-23.416 126.208-40.090 29.133-96.939 23.074-126.669-18.21-73.352-101.854-144.879-205.039-216.115-308.394-19.798-28.723-11.008-64.598 17.050-84.138 26.914-18.739 63.113-15.087 83.030 12.578 59.512 82.705 117.521 166.486 175.684 250.146 10.684 15.377 7.048 30.533-8.568 40.022-16.008 9.745-29.474 3.26-39.731-11.418-45.79-65.468-91.665-130.867-137.541-196.267-6.041-8.618-12.305-17.084-19.746-27.409-9.916 7.134-18.876 13.568-29.338 21.060zM-1377.775 210.517h-153.139l-26.829-62.43c-6.605-15.36-9.916-26.846-9.916-34.423 0-6.024 2.867-11.332 8.601-15.889 5.735-4.574 18.142-7.543 37.188-8.909v-10.786h-124.553v10.786c16.521 2.918 27.222 6.707 32.085 11.384 9.899 9.336 20.889 28.296 32.956 56.883l139.145 325.546h10.206l137.694-329.029c11.076-26.454 21.146-43.606 30.191-51.49 9.028-7.868 21.623-12.305 37.768-13.278v-10.786h-156.058v10.786c15.77 0.785 26.402 3.397 31.949 7.868s8.312 9.916 8.312 16.333c0 8.55-3.891 22.067-11.674 40.55l-23.928 56.883zM-1385.933 232.107l-67.089 159.846-68.847-159.846h135.936zM-1651.098-28.211v29.167h424.721v-29.167h-424.721zM1676.373 2886.4h170.667v-358.4h-170.667v358.4zM1881.174 3040h170.667v-512h-170.667v512zM2085.974 2971.733h170.666v-443.733h-170.666v443.733zM1891.943 1186.594c0.017-35.089 0.17-70.178-0.102-105.25-0.069-8.96 2.782-15.769 9.165-22.119 48.247-47.906 96.256-96.068 144.35-144.128 18.671-18.671 18.722-24.423-2.099-39.851-75.759-56.149-158.601-69.171-245.59-32.734-86.084 36.079-136.209 103.322-148.736 195.84-18.62 137.574 85.094 263.526 223.795 274.295 12.476 0.973 19.046-4.694 19.114-17.544 0.222-36.165 0.102-72.328 0.102-108.51zM1925.871 1209.941c0 34.338-0.051 68.694 0.034 103.032 0.034 13.995 6.861 20.582 19.968 18.995 105.455-12.766 177.083-68.71 212.787-168.909 6.331-17.784 8.311-37.239 11.178-56.081 1.945-12.783-4.233-19.388-16.947-19.422-69.769-0.154-139.554-0.137-209.322 0-12.186 0.017-17.511 5.802-17.544 18.278-0.102 34.713-0.034 69.41-0.034 104.124-0.069-0.017-0.085-0.017-0.12-0.017zM2201.856 1028.881c-4.454-47.189-23.876-93.406-57.976-133.376-8.226-9.643-16.742-9.336-26.794 0.7-34.304 34.236-68.506 68.574-102.775 102.861-9.199 9.216-18.347 18.483-27.751 27.494-5.785 5.547-9.557 12.749-5.086 19.217 3.226 4.677 10.838 8.874 16.537 8.943 62.208 0.649 124.433 0.495 186.658 0.427 13.738-0.051 18.296-5.785 17.186-26.265zM-5113.447-32l77.551 231.714 214.409 215.364 19.865-19.234-210.244-210.569-11.537 11.861-0.649-0.649c-3.635-10.257-7.373-20.77-11.213-31.574-3.84-10.786-7.697-21.947-11.537-33.485-3.84-11.537-7.151-21.692-9.933-30.447-2.782-8.755-5.239-16.231-7.373-22.442l-6.093-18.586c8.551 0 18.807-5.99 30.771-17.954s17.954-22.221 17.954-30.771l136.534 46.149 0.649 0.649-11.861 11.537 210.569 210.245 19.234-19.865-215.364-214.409-231.731-77.534zM-4986.215 159.659l210.244 210.568 109.926-109.926-210.688-209.784-109.483 109.142zM-4940.698 114.466l209.92 210.568 19.542-19.541-210.569-210.244-18.893 19.217zM-4798.959 437.282l18.91 18.91c8.328 8.328 17.357 14.472 27.085 18.432 9.728 3.959 20.139 5.922 31.249 5.922 22.443 0 41.762-8.123 58.010-24.354l38.451-38.776c16.23-16.23 24.354-35.464 24.354-57.685 0-11.111-1.98-21.521-5.922-31.249s-10.104-18.756-18.432-27.085l-18.91-18.91-154.794 154.795zM-5076.053 948.497c0 3.43 1.177 6.314 3.533 8.67s5.239 3.533 8.67 3.533h26.334v46.25h-23.774c-3.857 0-7.288 1.502-10.274 4.505-3.003 3.004-4.506 6.417-4.506 10.274v21.845c0 3.857 1.502 7.288 4.506 10.274 3.003 3.004 6.417 4.505 10.274 4.505h23.774v38.553h-23.774c-3.857 0-7.288 1.502-10.274 4.505-3.003 3.004-4.506 6.417-4.506 10.274v21.845c0 3.857 1.502 7.287 4.506 10.274 3.003 3.004 6.417 4.506 10.274 4.506h23.774v43.69h-26.334c-3.431 0-6.315 1.178-8.67 3.533s-3.533 5.239-3.533 8.67v26.982c0 3.431 1.177 6.314 3.533 8.67s5.239 3.533 8.67 3.533h26.334v64.239c0 7.288 2.458 13.381 7.39 18.313s11.042 7.39 18.329 7.39h436.873c7.288 0 13.381-2.457 18.313-7.39s7.39-11.025 7.39-18.313v-462.558c0-7.288-2.458-13.38-7.39-18.313-4.932-4.933-11.025-7.39-18.313-7.39h-436.873c-7.288 0-13.381 2.457-18.313 7.39-4.932 4.933-7.39 11.025-7.39 18.313v64.239h-26.334c-3.431 0-6.315 1.178-8.67 3.533-2.355 2.355-3.533 5.24-3.533 8.67v26.982zM-4982.579 874.308c2.355-2.355 5.239-3.533 8.67-3.533h361.063c3.431 0 6.315 1.178 8.67 3.533 2.355 2.355 3.533 5.24 3.533 8.67v386.748c0 3.43-1.177 6.314-3.533 8.67s-5.239 3.533-8.67 3.533h-361.063c-3.431 0-6.315-1.178-8.67-3.533s-3.533-5.239-3.533-8.67v-26.334h26.334c3.431 0 6.315-1.178 8.67-3.533s3.533-5.239 3.533-8.67v-26.982c0-3.431-1.177-6.314-3.533-8.67s-5.239-3.533-8.67-3.533h-26.334v-43.691h23.774c3.857 0 7.288-1.502 10.274-4.505 3.003-3.004 4.489-6.417 4.489-10.274v-21.845c0-3.857-1.502-7.287-4.489-10.274-3.003-3.004-6.417-4.506-10.274-4.506h-23.774v-38.553h23.774c3.857 0 7.288-1.502 10.274-4.505 3.003-3.004 4.489-6.417 4.489-10.274v-21.846c0-3.857-1.502-7.288-4.489-10.274-3.003-3.004-6.417-4.505-10.274-4.505h-23.774v-46.25h26.334c3.431 0 6.315-1.178 8.67-3.533s3.533-5.24 3.533-8.67v-26.982c0-3.431-1.177-6.315-3.533-8.67-2.355-2.355-5.239-3.533-8.67-3.533h-26.334v-26.334c0-3.431 1.177-6.315 3.533-8.67zM-4666.505 1088.495c0-13.79-2.133-26.419-6.417-37.871-4.283-11.469-10.291-20.343-18.056-26.658-7.766-6.314-16.708-9.472-26.811-9.472-8.363 0-15.394 2.526-21.128 7.577s-9.131 11.503-10.206 19.37h-1.16c-3.874-8.448-9.455-15.053-16.674-19.814-7.236-4.761-15.803-7.134-25.72-7.134-14.575 0-25.958 4.984-34.167 14.934-8.209 9.95-12.305 23.483-12.305 40.567 0 19.814 5.734 35.909 17.186 48.299 11.452 12.39 26.505 18.568 45.158 18.568 6.605 0 14.080-0.615 22.443-1.826s15.872-2.885 22.579-5.017l-3.635-68.472v-3.208c0-17.288 6.468-25.924 19.37-25.924 8.841 0 16.025 5.222 21.555 15.667 5.529 10.445 8.311 24.013 8.311 40.721 0 17.579-3.584 32.973-10.786 46.182s-17.408 23.381-30.669 30.515c-13.261 7.134-28.484 10.701-45.671 10.701-21.658 0-40.499-4.489-56.525-13.482-16.025-8.994-28.262-21.811-36.711-38.451-8.448-16.657-12.681-35.909-12.681-57.754 0-29.61 7.816-52.394 23.449-68.318 15.633-15.923 38.161-23.894 67.601-23.894 20.395 0 41.574 4.182 63.522 12.527v-19.37c-18.654-8.158-39.816-12.237-63.522-12.237-35.26 0-62.618 9.694-82.091 29.064-19.473 19.371-29.201 46.439-29.201 81.22 0 25.242 5.189 47.736 15.582 67.448 10.394 19.712 25.208 34.986 44.425 45.807 19.234 10.821 41.284 16.247 66.133 16.247 20.89 0 39.458-4.403 55.722-13.175 16.265-8.789 28.842-21.265 37.734-37.445 8.926-16.197 13.363-34.816 13.363-55.893zM-4817.135 1069.414c0-24.661 9.472-37 28.399-37 20.105 0 31.027 15.189 32.785 45.602l2.048 38.024c-6.998 1.945-14.626 2.918-22.869 2.918-12.63 0-22.511-4.369-29.645-13.107-7.151-8.755-10.718-20.889-10.718-36.438zM509.679 346.078c10.342 0 19.251-3.84 26.692-11.52 7.441-7.68 11.178-17.049 11.178-28.143v-338.415h-547.55v338.415c0 11.094 3.72 20.463 11.178 28.143 7.441 7.68 16.35 11.52 26.692 11.52h471.808zM32.751 383.727l80.111 96.273h188.501l72.26-96.273z" horiz-adv-x="548" />
<glyph unicode="&#xe623;" d="M449.152 87.219l-96.743 96.743c14.592 23.987 22.989 52.096 22.989 82.227 0 87.45-75.801 163.251-163.277 163.251-87.45 0-158.362-70.912-158.362-158.362 0-87.475 75.776-163.277 163.251-163.277 29.082 0 56.32 7.885 79.744 21.581l97.255-97.28c9.549-9.523 24.96-9.523 34.457 0l24.141 24.115c9.498 9.523 6.041 21.504-3.456 31.002zM102.502 271.078c0 60.544 49.075 109.645 109.619 109.645 60.569 0 114.535-53.965 114.535-114.535s-49.075-109.645-109.645-109.645-114.509 53.965-114.509 114.534z" />
<glyph unicode="&#xe624;" d="M51.578 39.351c12.511-12.511 18.767-23.233 18.767-32.164l140.775 51.238 8.096-8.096h-0.017l-219.2-82.327 73.106 218.382 224.177 225.183 20.778-20.113-219.831-220.154-12.068 12.392-0.665-0.665c-3.801-10.721-7.704-21.733-11.727-33-4.022-11.284-8.046-22.959-12.068-35.010-4.023-12.068-7.483-22.67-10.38-31.84-2.898-9.153-10.84-28.517-13.073-34.993zM125.043 144.485l219.83 220.154 94.498-94.498-220.171-219.814-94.157 94.157zM172.632 97.236l219.489 220.154 20.437-20.437-220.154-219.813-19.773 20.096zM320.839 434.762l19.772 19.773c8.71 8.71 18.153 15.136 28.312 19.261s21.050 6.204 32.675 6.204c23.454 0 43.67-8.488 60.647-25.465l22.363-22.704c16.977-16.977 25.466-37.090 25.466-60.322 0-11.625-2.063-22.5-6.204-32.676-4.125-10.159-10.551-19.602-19.261-28.312l-19.772-19.772-143.997 144.014z" horiz-adv-x="510" />
</font>
</defs>
</svg>
